<svg xmlns="http://www.w3.org/2000/svg" xmlns:xlink="http://www.w3.org/1999/xlink" width="500" zoomAndPan="magnify" viewBox="0 0 375 374.999991" height="500" preserveAspectRatio="xMidYMid meet" version="1.0"><defs><g/><clipPath id="fc02ea5b88"><path d="M 258.644531 160.625 L 268.714844 160.625 L 268.714844 170.695312 L 258.644531 170.695312 Z M 258.644531 160.625 " clip-rule="nonzero"/></clipPath><clipPath id="5a4a635c5f"><path d="M 263.679688 160.625 C 260.898438 160.625 258.644531 162.878906 258.644531 165.660156 C 258.644531 168.441406 260.898438 170.695312 263.679688 170.695312 C 266.460938 170.695312 268.714844 168.441406 268.714844 165.660156 C 268.714844 162.878906 266.460938 160.625 263.679688 160.625 Z M 263.679688 160.625 " clip-rule="nonzero"/></clipPath><clipPath id="21706fc6d5"><path d="M 0.644531 0.625 L 10.714844 0.625 L 10.714844 10.695312 L 0.644531 10.695312 Z M 0.644531 0.625 " clip-rule="nonzero"/></clipPath><clipPath id="78a9eb2acd"><path d="M 5.679688 0.625 C 2.898438 0.625 0.644531 2.878906 0.644531 5.660156 C 0.644531 8.441406 2.898438 10.695312 5.679688 10.695312 C 8.460938 10.695312 10.714844 8.441406 10.714844 5.660156 C 10.714844 2.878906 8.460938 0.625 5.679688 0.625 Z M 5.679688 0.625 " clip-rule="nonzero"/></clipPath><clipPath id="71d9e390f2"><rect x="0" width="11" y="0" height="11"/></clipPath><clipPath id="3b9e0f3ea2"><path d="M 0.644531 0.625 L 10.714844 0.625 L 10.714844 10.695312 L 0.644531 10.695312 Z M 0.644531 0.625 " clip-rule="nonzero"/></clipPath><clipPath id="74fe4e297e"><path d="M 5.679688 0.625 C 2.898438 0.625 0.644531 2.878906 0.644531 5.660156 C 0.644531 8.441406 2.898438 10.695312 5.679688 10.695312 C 8.460938 10.695312 10.714844 8.441406 10.714844 5.660156 C 10.714844 2.878906 8.460938 0.625 5.679688 0.625 Z M 5.679688 0.625 " clip-rule="nonzero"/></clipPath><clipPath id="88680d5df2"><rect x="0" width="11" y="0" height="11"/></clipPath></defs><rect x="-37.5" width="450" fill="#ffffff" y="-37.499999" height="449.999989" fill-opacity="1"/><rect x="-37.5" width="450" fill="#000000" y="-37.499999" height="449.999989" fill-opacity="1"/><g fill="#ffffff" fill-opacity="1"><g transform="translate(86.440004, 202.550598)"><g><path d="M 9.4375 0 L 4.625 0 L 4.625 -28.546875 L 9.234375 -28.546875 L 9.234375 -23.03125 C 9.773438 -24.257812 10.5625 -25.347656 11.59375 -26.296875 C 12.632812 -27.253906 13.851562 -28.003906 15.25 -28.546875 C 16.644531 -29.085938 18.144531 -29.359375 19.75 -29.359375 C 23.539062 -29.359375 26.414062 -28.1875 28.375 -25.84375 C 30.332031 -23.5 31.3125 -20.039062 31.3125 -15.46875 L 31.3125 0 L 26.5 0 L 26.5 -15.390625 C 26.5 -18.671875 25.789062 -21.066406 24.375 -22.578125 C 22.957031 -24.085938 21.007812 -24.84375 18.53125 -24.84375 C 17.332031 -24.84375 16.1875 -24.617188 15.09375 -24.171875 C 14 -23.722656 13.023438 -23.070312 12.171875 -22.21875 C 11.328125 -21.363281 10.660156 -20.328125 10.171875 -19.109375 C 9.679688 -17.898438 9.4375 -16.53125 9.4375 -15 Z M 9.4375 0 "/></g></g></g><g fill="#ffffff" fill-opacity="1"><g transform="translate(118.70726, 202.550598)"><g><path d="M 30.84375 -14.96875 C 30.84375 -14.726562 30.835938 -14.472656 30.828125 -14.203125 C 30.816406 -13.929688 30.789062 -13.535156 30.75 -13.015625 L 7.078125 -13.015625 C 7.285156 -11.109375 7.84375 -9.453125 8.75 -8.046875 C 9.664062 -6.648438 10.8125 -5.570312 12.1875 -4.8125 C 13.570312 -4.0625 15.050781 -3.6875 16.625 -3.6875 C 18.539062 -3.6875 20.179688 -4.101562 21.546875 -4.9375 C 22.910156 -5.769531 23.910156 -6.988281 24.546875 -8.59375 L 29.9375 -8.59375 C 29.53125 -7.28125 28.921875 -6.054688 28.109375 -4.921875 C 27.296875 -3.785156 26.316406 -2.789062 25.171875 -1.9375 C 24.023438 -1.09375 22.738281 -0.429688 21.3125 0.046875 C 19.882812 0.535156 18.359375 0.78125 16.734375 0.78125 C 14.660156 0.78125 12.742188 0.394531 10.984375 -0.375 C 9.222656 -1.15625 7.679688 -2.234375 6.359375 -3.609375 C 5.046875 -4.992188 4.023438 -6.59375 3.296875 -8.40625 C 2.566406 -10.226562 2.203125 -12.179688 2.203125 -14.265625 C 2.203125 -16.359375 2.566406 -18.3125 3.296875 -20.125 C 4.023438 -21.945312 5.046875 -23.546875 6.359375 -24.921875 C 7.679688 -26.304688 9.222656 -27.390625 10.984375 -28.171875 C 12.742188 -28.960938 14.660156 -29.359375 16.734375 -29.359375 C 18.785156 -29.359375 20.671875 -28.972656 22.390625 -28.203125 C 24.117188 -27.441406 25.613281 -26.390625 26.875 -25.046875 C 28.132812 -23.703125 29.109375 -22.164062 29.796875 -20.4375 C 30.492188 -18.71875 30.84375 -16.894531 30.84375 -14.96875 Z M 7.296875 -17.265625 L 25.90625 -17.265625 C 25.832031 -18.273438 25.539062 -19.234375 25.03125 -20.140625 C 24.519531 -21.054688 23.84375 -21.863281 23 -22.5625 C 22.164062 -23.269531 21.203125 -23.820312 20.109375 -24.21875 C 19.015625 -24.625 17.863281 -24.828125 16.65625 -24.828125 C 15.238281 -24.828125 13.882812 -24.535156 12.59375 -23.953125 C 11.300781 -23.378906 10.1875 -22.53125 9.25 -21.40625 C 8.320312 -20.289062 7.671875 -18.910156 7.296875 -17.265625 Z M 7.296875 -17.265625 "/></g></g></g><g fill="#ffffff" fill-opacity="1"><g transform="translate(147.980569, 202.550598)"><g><path d="M 25.6875 0 L 1.953125 0 L 1.953125 -3.109375 L 18.5 -24.4375 L 2.765625 -24.4375 L 2.765625 -28.546875 L 25.015625 -28.546875 L 25.015625 -25.375 L 8.5625 -4.109375 L 25.6875 -4.109375 Z M 25.6875 0 "/></g></g></g><g fill="#ffffff" fill-opacity="1"><g transform="translate(171.71368, 202.550598)"><g><path d="M 16 0.8125 C 14.039062 0.8125 12.226562 0.425781 10.5625 -0.34375 C 8.894531 -1.125 7.4375 -2.203125 6.1875 -3.578125 C 4.9375 -4.960938 3.957031 -6.566406 3.25 -8.390625 C 2.550781 -10.222656 2.203125 -12.179688 2.203125 -14.265625 C 2.203125 -16.359375 2.550781 -18.3125 3.25 -20.125 C 3.957031 -21.945312 4.9375 -23.546875 6.1875 -24.921875 C 7.4375 -26.304688 8.894531 -27.382812 10.5625 -28.15625 C 12.226562 -28.9375 14.035156 -29.328125 15.984375 -29.328125 C 17.691406 -29.328125 19.28125 -29.046875 20.75 -28.484375 C 22.226562 -27.929688 23.53125 -27.132812 24.65625 -26.09375 C 25.789062 -25.0625 26.675781 -23.835938 27.3125 -22.421875 L 27.3125 -28.546875 L 31.9375 -28.546875 L 31.9375 0 L 27.3125 0 L 27.3125 -6.078125 C 26.675781 -4.671875 25.789062 -3.453125 24.65625 -2.421875 C 23.53125 -1.390625 22.226562 -0.59375 20.75 -0.03125 C 19.28125 0.53125 17.695312 0.8125 16 0.8125 Z M 17.078125 -3.6875 C 18.472656 -3.6875 19.78125 -3.953125 21 -4.484375 C 22.21875 -5.023438 23.285156 -5.773438 24.203125 -6.734375 C 25.117188 -7.691406 25.835938 -8.8125 26.359375 -10.09375 C 26.878906 -11.382812 27.140625 -12.773438 27.140625 -14.265625 C 27.140625 -15.742188 26.878906 -17.117188 26.359375 -18.390625 C 25.835938 -19.671875 25.113281 -20.789062 24.1875 -21.75 C 23.269531 -22.71875 22.203125 -23.472656 20.984375 -24.015625 C 19.773438 -24.554688 18.476562 -24.828125 17.09375 -24.828125 C 15.695312 -24.828125 14.390625 -24.566406 13.171875 -24.046875 C 11.960938 -23.535156 10.890625 -22.800781 9.953125 -21.84375 C 9.023438 -20.894531 8.300781 -19.78125 7.78125 -18.5 C 7.257812 -17.226562 7 -15.816406 7 -14.265625 C 7 -12.679688 7.265625 -11.238281 7.796875 -9.9375 C 8.328125 -8.644531 9.050781 -7.53125 9.96875 -6.59375 C 10.894531 -5.664062 11.96875 -4.945312 13.1875 -4.4375 C 14.414062 -3.9375 15.710938 -3.6875 17.078125 -3.6875 Z M 17.078125 -3.6875 "/></g></g></g><g fill="#ffffff" fill-opacity="1"><g transform="translate(204.932283, 202.550598)"><g><path d="M 9.453125 0 L 4.625 0 L 4.625 -28.546875 L 9.265625 -28.546875 L 9.265625 -22.15625 C 9.972656 -24.132812 11.078125 -25.691406 12.578125 -26.828125 C 14.078125 -27.972656 15.863281 -28.546875 17.9375 -28.546875 L 20.703125 -28.546875 L 20.703125 -24.3125 L 18.1875 -24.3125 C 16.53125 -24.3125 15.035156 -23.882812 13.703125 -23.03125 C 12.378906 -22.175781 11.335938 -20.9375 10.578125 -19.3125 C 9.828125 -17.6875 9.453125 -15.726562 9.453125 -13.4375 Z M 9.453125 0 "/></g></g></g><g fill="#ffffff" fill-opacity="1"><g transform="translate(223.326718, 202.550598)"><g><path d="M 15.46875 0.875 C 13.53125 0.875 11.734375 0.484375 10.078125 -0.296875 C 8.429688 -1.085938 7 -2.179688 5.78125 -3.578125 C 4.5625 -4.984375 3.613281 -6.609375 2.9375 -8.453125 C 2.269531 -10.296875 1.9375 -12.273438 1.9375 -14.390625 C 1.9375 -16.492188 2.273438 -18.460938 2.953125 -20.296875 C 3.628906 -22.140625 4.578125 -23.757812 5.796875 -25.15625 C 7.023438 -26.550781 8.457031 -27.644531 10.09375 -28.4375 C 11.738281 -29.238281 13.523438 -29.640625 15.453125 -29.640625 C 17.796875 -29.640625 19.878906 -29.128906 21.703125 -28.109375 C 23.535156 -27.085938 24.910156 -25.6875 25.828125 -23.90625 L 25.828125 -28.765625 L 32.265625 -28.765625 L 32.265625 0 L 25.828125 0 L 25.828125 -4.84375 C 24.898438 -3.050781 23.523438 -1.648438 21.703125 -0.640625 C 19.878906 0.367188 17.800781 0.875 15.46875 0.875 Z M 17.09375 -5.40625 C 18.269531 -5.40625 19.367188 -5.628906 20.390625 -6.078125 C 21.421875 -6.535156 22.320312 -7.171875 23.09375 -7.984375 C 23.875 -8.796875 24.476562 -9.75 24.90625 -10.84375 C 25.332031 -11.9375 25.546875 -13.117188 25.546875 -14.390625 C 25.546875 -15.640625 25.328125 -16.804688 24.890625 -17.890625 C 24.453125 -18.984375 23.847656 -19.941406 23.078125 -20.765625 C 22.316406 -21.585938 21.421875 -22.222656 20.390625 -22.671875 C 19.367188 -23.128906 18.269531 -23.359375 17.09375 -23.359375 C 15.550781 -23.359375 14.140625 -22.984375 12.859375 -22.234375 C 11.578125 -21.492188 10.550781 -20.453125 9.78125 -19.109375 C 9.019531 -17.765625 8.640625 -16.191406 8.640625 -14.390625 C 8.640625 -12.515625 9.023438 -10.90625 9.796875 -9.5625 C 10.578125 -8.226562 11.609375 -7.203125 12.890625 -6.484375 C 14.179688 -5.765625 15.582031 -5.40625 17.09375 -5.40625 Z M 17.09375 -5.40625 "/></g></g></g><g fill="#ffffff" fill-opacity="1"><g transform="translate(256.237532, 202.550598)"><g><path d="M 7.296875 -33.25 C 5.992188 -33.25 4.972656 -33.625 4.234375 -34.375 C 3.503906 -35.132812 3.140625 -36.054688 3.140625 -37.140625 C 3.140625 -38.179688 3.503906 -39.082031 4.234375 -39.84375 C 4.972656 -40.613281 6.003906 -41 7.328125 -41 C 8.691406 -41 9.738281 -40.613281 10.46875 -39.84375 C 11.207031 -39.082031 11.578125 -38.179688 11.578125 -37.140625 C 11.578125 -36.054688 11.207031 -35.132812 10.46875 -34.375 C 9.738281 -33.625 8.679688 -33.25 7.296875 -33.25 Z M 10.75 0 L 3.96875 0 L 3.96875 -28.765625 L 10.75 -28.765625 Z M 10.75 0 "/></g></g></g><g clip-path="url(#fc02ea5b88)"><g clip-path="url(#5a4a635c5f)"><g transform="matrix(1, 0, 0, 1, 258, 160)"><g clip-path="url(#71d9e390f2)"><g clip-path="url(#21706fc6d5)"><g clip-path="url(#78a9eb2acd)"><path fill="#f4f4f4" d="M 0.644531 0.625 L 10.714844 0.625 L 10.714844 10.695312 L 0.644531 10.695312 Z M 0.644531 0.625 " fill-opacity="1" fill-rule="nonzero"/></g></g></g></g><g transform="matrix(1, 0, 0, 1, 258, 160)"><g clip-path="url(#88680d5df2)"><g clip-path="url(#3b9e0f3ea2)"><g clip-path="url(#74fe4e297e)"><path fill="#1b17ff" d="M 0.644531 0.625 L 10.714844 0.625 L 10.714844 10.695312 L 0.644531 10.695312 Z M 0.644531 0.625 " fill-opacity="1" fill-rule="nonzero"/></g></g></g></g></g></g></svg>